<svg xmlns="http://www.w3.org/2000/svg" version="1.1" xmlns:xlink="http://www.w3.org/1999/xlink" width="512" height="512" x="0" y="0" viewBox="0 0 60 60" style="enable-background:new 0 0 512 512" xml:space="preserve" class="__web-inspector-hide-shortcut__"><g><path fill="#c4dbef" d="M41 42.17V42a3 3 0 0 0-3-3H10a3 3 0 0 0-3 3v.17l1.26 6.25a17 17 0 0 0 31.48 0z" opacity="1" data-original="#c4dbef" class=""></path><path fill="#b4ccdc" d="M6 17v14H5c-2.21 0-4-3.13-4-7s1.79-7 4-7zM42 17v14h1c2.21 0 4-3.13 4-7s-1.79-7-4-7z" opacity="1" data-original="#b4ccdc" class=""></path><path fill="#dbebff" d="M43 23v8a8 8 0 0 1-8 8H13a8 8 0 0 1-8-8V17a8 8 0 0 1 8-8h20z" opacity="1" data-original="#dbebff" class=""></path><path fill="#3c6096" d="M39 23v8a4 4 0 0 1-4 4H13a4 4 0 0 1-4-4V21a4 4 0 0 1 4-4h20z" opacity="1" data-original="#3c6096" class=""></path><circle cx="15.5" cy="23.5" r="2.5" fill="#34dbdb" opacity="1" data-original="#34dbdb" class=""></circle><path fill="#34dbdb" d="M34.95 23a2.734 2.734 0 0 1 .05.5 2.5 2.5 0 1 1-2.5-2.5 2.734 2.734 0 0 1 .5.05M22 27h4a1 1 0 0 1 1 1 3 3 0 0 1-3 3 3 3 0 0 1-3-3 1 1 0 0 1 1-1z" opacity="1" data-original="#34dbdb" class=""></path><path fill="#dbebff" d="M8.377 48.075c-1.335 3.811-4.509 8.425-6.228 7.882s-1.335-6.044 0-9.854S5.28 41.617 7 42.167s2.723 2.098 1.377 5.908zM39.623 48.075c1.335 3.811 4.509 8.422 6.227 7.882s1.336-6.044 0-9.854-3.13-4.486-4.85-3.936-2.723 2.098-1.377 5.908z" opacity="1" data-original="#dbebff" class=""></path><path fill="#73c481" d="M59 3v18a2.006 2.006 0 0 1-2 2h-2v4.06a.926.926 0 0 1-1.53.71L48 23H35a2.006 2.006 0 0 1-2-2V3a2.006 2.006 0 0 1 2-2h22a2.006 2.006 0 0 1 2 2z" opacity="1" data-original="#73c481" class=""></path><circle cx="24" cy="48" r="4" fill="#3c6096" opacity="1" data-original="#3c6096" class=""></circle><g fill="#373737"><path d="M15.5 20a3.5 3.5 0 1 0 3.5 3.5 3.5 3.5 0 0 0-3.5-3.5zm0 5a1.5 1.5 0 1 1 1.5-1.5 1.5 1.5 0 0 1-1.5 1.5zM26 26h-4a2 2 0 0 0-2 2 4 4 0 0 0 8 0 2 2 0 0 0-2-2zm-2 4a2 2 0 0 1-2-2h4a2 2 0 0 1-2 2z" fill="#373737" opacity="1" data-original="#373737" class=""></path><path d="M57 0H35a3 3 0 0 0-3 3v13H13a5.006 5.006 0 0 0-5 5v10a5.006 5.006 0 0 0 5 5h22a5.006 5.006 0 0 0 5-5v-7h2v7a7.009 7.009 0 0 1-7 7H13a7.009 7.009 0 0 1-7-7V17a7.009 7.009 0 0 1 7-7h16a1 1 0 0 0 0-2H13a9.011 9.011 0 0 0-8.957 8.145C1.713 16.841 0 20.039 0 24s1.713 7.159 4.043 7.855a9 9 0 0 0 4.023 6.664 4.011 4.011 0 0 0-.893.654A3.966 3.966 0 0 0 6.141 41c-1.652-.073-3.562.894-4.935 4.77-1.142 3.258-1.699 7.87-.657 9.949a2.2 2.2 0 0 0 1.3 1.192 1.86 1.86 0 0 0 .574.089c2.094 0 4.426-3.3 5.876-6.216a17.966 17.966 0 0 0 31.4 0C41.15 53.7 43.483 57 45.578 57a1.9 1.9 0 0 0 .572-.087 2.206 2.206 0 0 0 1.3-1.192c1.042-2.079.485-6.691-.658-9.95-1.372-3.878-3.285-4.843-4.934-4.771a3.991 3.991 0 0 0-1.926-2.482 9 9 0 0 0 4.025-6.664c2.267-.677 3.944-3.725 4.033-7.536l4.824 4.206a1.909 1.909 0 0 0 1.253.476 1.941 1.941 0 0 0 .8-.176A1.917 1.917 0 0 0 56 27.06V24h1a3 3 0 0 0 3-3V3a3 3 0 0 0-3-3zM2 24c0-2.709.928-4.783 2-5.608v11.216C2.928 28.783 2 26.709 2 24zm.489 31.012h-.022c-.651-.439-.77-4.594.625-8.574 1.032-2.913 2.148-3.446 2.913-3.446a2.194 2.194 0 0 1 .693.13 1.668 1.668 0 0 1 1.086.832c.265.528.418 1.614-.35 3.789-1.419 4.05-4.142 7.269-4.945 7.269zm42.418-8.578c1.4 3.983 1.277 8.138.656 8.566-.788.071-3.564-3.166-5-7.256-.768-2.175-.615-3.261-.35-3.789a1.674 1.674 0 0 1 1.091-.834 2.2 2.2 0 0 1 .696-.13c.76 0 1.876.532 2.907 3.443zM38 40a2 2 0 0 1 1.939 1.531 3.441 3.441 0 0 0-1.512 1.528c-.641 1.281-.562 3.018.238 5.3a15.732 15.732 0 0 1-3.353 4.95 15.988 15.988 0 0 1-25.979-4.94c.8-2.289.881-4.028.24-5.31a3.444 3.444 0 0 0-1.511-1.528A1.99 1.99 0 0 1 10 40zm-5.806-17.968a3 3 0 0 0 1.774 1.774 1.5 1.5 0 1 1-1.774-1.774zM38 31a3 3 0 0 1-3 3H13a3 3 0 0 1-3-3V21a3 3 0 0 1 3-3h19v2.051A3.492 3.492 0 1 0 35.949 24H38zm6-1.392V24h2c0 2.709-.928 4.783-2 5.608zM58 21a1 1 0 0 1-1 1h-2a1 1 0 0 0-1 1v3.905l-5.343-4.659A1 1 0 0 0 48 22H35a1 1 0 0 1-1-1V3a1 1 0 0 1 1-1h22a1 1 0 0 1 1 1z" fill="#373737" opacity="1" data-original="#373737" class=""></path><path d="M24 53a5 5 0 1 0-5-5 5.006 5.006 0 0 0 5 5zm0-8a3 3 0 1 1-3 3 3 3 0 0 1 3-3zM54 6H38a1 1 0 0 0 0 2h16a1 1 0 0 0 0-2zM54 11H38a1 1 0 0 0 0 2h16a1 1 0 0 0 0-2zM51 16H38a1 1 0 0 0 0 2h13a1 1 0 0 0 0-2z" fill="#373737" opacity="1" data-original="#373737" class=""></path></g></g></svg>